<?xml version="1.0" encoding="UTF-8"?>
<svg id="Layer_1" data-name="Layer 1" xmlns="http://www.w3.org/2000/svg" width="30" height="30" xmlns:xlink="http://www.w3.org/1999/xlink" viewBox="0 0 30 30">
  <defs>
    <style>
      .cls-1 {
        fill: #fff;
      }

      .cls-2 {
        fill: #ec1c26;
      }

      .cls-3 {
        fill: none;
      }

      .cls-4 {
        clip-path: url(#clippath);
      }
    </style>
    <clipPath id="clippath">
      <rect class="cls-3" x="0" width="29.99" height="29.96"/>
    </clipPath>
  </defs>
  <rect class="cls-2" y=".03" width="30" height="29.97"/>
  <g class="cls-4">
    <path class="cls-1" d="M24.98,13.93h-4.69l-4.3,3.16,1.02-3.16h-7.51c.33-.34.81-.54,1.63-.69l3.44-.61c1.37-.24,3.35-.93,3.9-2.63.8-2.51-1.8-3.02-4.75-3.02-2.29,0-5.38.41-6.64,3.5h3.88c.48-1.16,1.5-1.25,2.48-1.25.84,0,1.41.21,1.24.72-.12.38-.44.61-.92.7l-2.83.57c-2.3.46-4.82,1.51-5.99,4.96h7.81l-2.15,6.71h3.54l.77-2.41,1.5-1.03,1.35,3.44h4.71l-2.59-5.49,5.11-3.46Z"/>
  </g>
</svg>